  0
SECTION
  2
BLOCKS
  0
ENDSEC
  0
SECTION
  2
ENTITIES
  0
LINE
  8
0
 10
29.618
 20
-18.9021
 11
30
 21
-18.732
  0
LINE
  8
0
 10
30
 20
-18.732
 11
30.3383
 21
-18.4863
  0
LINE
  8
0
 10
30.3383
 20
-18.4863
 11
30.618
 21
-18.1756
  0
LINE
  8
0
 10
30.618
 20
-18.1756
 11
30.8271
 21
-17.8135
  0
LINE
  8
0
 10
30.8271
 20
-17.8135
 11
30.9563
 21
-17.4158
  0
LINE
  8
0
 10
30.9563
 20
-17.4158
 11
31
 21
-17
  0
LINE
  8
0
 10
31
 20
-17
 11
31
 21
17
  0
LINE
  8
0
 10
31
 20
17
 11
30.9563
 21
17.4158
  0
LINE
  8
0
 10
30.9563
 20
17.4158
 11
30.8271
 21
17.8135
  0
LINE
  8
0
 10
30.8271
 20
17.8135
 11
30.618
 21
18.1756
  0
LINE
  8
0
 10
30.618
 20
18.1756
 11
30.3383
 21
18.4863
  0
LINE
  8
0
 10
30.3383
 20
18.4863
 11
30
 21
18.732
  0
LINE
  8
0
 10
30
 20
18.732
 11
29.618
 21
18.9021
  0
LINE
  8
0
 10
29.618
 20
18.9021
 11
29.209
 21
18.989
  0
LINE
  8
0
 10
29.209
 20
18.989
 11
-29.209
 21
18.989
  0
LINE
  8
0
 10
-29.209
 20
18.989
 11
-29.618
 21
18.9021
  0
LINE
  8
0
 10
-29.618
 20
18.9021
 11
-30
 21
18.732
  0
LINE
  8
0
 10
-30
 20
18.732
 11
-30.3383
 21
18.4863
  0
LINE
  8
0
 10
-30.3383
 20
18.4863
 11
-30.618
 21
18.1756
  0
LINE
  8
0
 10
-30.618
 20
18.1756
 11
-30.8271
 21
17.8135
  0
LINE
  8
0
 10
-30.8271
 20
17.8135
 11
-30.9563
 21
17.4158
  0
LINE
  8
0
 10
-30.9563
 20
17.4158
 11
-31
 21
17
  0
LINE
  8
0
 10
-31
 20
17
 11
-31
 21
-17
  0
LINE
  8
0
 10
-31
 20
-17
 11
-30.9563
 21
-17.4158
  0
LINE
  8
0
 10
-30.9563
 20
-17.4158
 11
-30.8271
 21
-17.8135
  0
LINE
  8
0
 10
-30.8271
 20
-17.8135
 11
-30.618
 21
-18.1756
  0
LINE
  8
0
 10
-30.618
 20
-18.1756
 11
-30.3383
 21
-18.4863
  0
LINE
  8
0
 10
-30.3383
 20
-18.4863
 11
-30
 21
-18.732
  0
LINE
  8
0
 10
-30
 20
-18.732
 11
-29.618
 21
-18.9021
  0
LINE
  8
0
 10
-29.618
 20
-18.9021
 11
-29.209
 21
-18.989
  0
LINE
  8
0
 10
-29.209
 20
-18.989
 11
29.209
 21
-18.989
  0
LINE
  8
0
 10
29.209
 20
-18.989
 11
29.618
 21
-18.9021
  0
LINE
  8
0
 10
28.8949
 20
16.0005
 11
28.6894
 21
16.0442
  0
LINE
  8
0
 10
28.6894
 20
16.0442
 11
28.4975
 21
16.1296
  0
LINE
  8
0
 10
28.4975
 20
16.1296
 11
28.3275
 21
16.2531
  0
LINE
  8
0
 10
28.3275
 20
16.2531
 11
28.1869
 21
16.4093
  0
LINE
  8
0
 10
28.1869
 20
16.4093
 11
28.0819
 21
16.5912
  0
LINE
  8
0
 10
28.0819
 20
16.5912
 11
28.017
 21
16.791
  0
LINE
  8
0
 10
28.017
 20
16.791
 11
27.995
 21
17
  0
LINE
  8
0
 10
27.995
 20
17
 11
28.017
 21
17.2089
  0
LINE
  8
0
 10
28.017
 20
17.2089
 11
28.0819
 21
17.4088
  0
LINE
  8
0
 10
28.0819
 20
17.4088
 11
28.1869
 21
17.5907
  0
LINE
  8
0
 10
28.1869
 20
17.5907
 11
28.3275
 21
17.7469
  0
LINE
  8
0
 10
28.3275
 20
17.7469
 11
28.4975
 21
17.8703
  0
LINE
  8
0
 10
28.4975
 20
17.8703
 11
28.6894
 21
17.9558
  0
LINE
  8
0
 10
28.6894
 20
17.9558
 11
28.8949
 21
17.9995
  0
LINE
  8
0
 10
28.8949
 20
17.9995
 11
29.105
 21
17.9995
  0
LINE
  8
0
 10
29.105
 20
17.9995
 11
29.3105
 21
17.9558
  0
LINE
  8
0
 10
29.3105
 20
17.9558
 11
29.5025
 21
17.8703
  0
LINE
  8
0
 10
29.5025
 20
17.8703
 11
29.6725
 21
17.7469
  0
LINE
  8
0
 10
29.6725
 20
17.7469
 11
29.813
 21
17.5907
  0
LINE
  8
0
 10
29.813
 20
17.5907
 11
29.9181
 21
17.4088
  0
LINE
  8
0
 10
29.9181
 20
17.4088
 11
29.983
 21
17.2089
  0
LINE
  8
0
 10
29.983
 20
17.2089
 11
30.005
 21
17
  0
LINE
  8
0
 10
30.005
 20
17
 11
29.983
 21
16.791
  0
LINE
  8
0
 10
29.983
 20
16.791
 11
29.9181
 21
16.5912
  0
LINE
  8
0
 10
29.9181
 20
16.5912
 11
29.813
 21
16.4093
  0
LINE
  8
0
 10
29.813
 20
16.4093
 11
29.6725
 21
16.2531
  0
LINE
  8
0
 10
29.6725
 20
16.2531
 11
29.5025
 21
16.1296
  0
LINE
  8
0
 10
29.5025
 20
16.1296
 11
29.3105
 21
16.0442
  0
LINE
  8
0
 10
29.3105
 20
16.0442
 11
29.105
 21
16.0005
  0
LINE
  8
0
 10
29.105
 20
16.0005
 11
28.8949
 21
16.0005
  0
LINE
  8
0
 10
-29.105
 20
16.0005
 11
-29.3105
 21
16.0442
  0
LINE
  8
0
 10
-29.3105
 20
16.0442
 11
-29.5025
 21
16.1296
  0
LINE
  8
0
 10
-29.5025
 20
16.1296
 11
-29.6725
 21
16.2531
  0
LINE
  8
0
 10
-29.6725
 20
16.2531
 11
-29.813
 21
16.4093
  0
LINE
  8
0
 10
-29.813
 20
16.4093
 11
-29.9181
 21
16.5912
  0
LINE
  8
0
 10
-29.9181
 20
16.5912
 11
-29.983
 21
16.791
  0
LINE
  8
0
 10
-29.983
 20
16.791
 11
-30.005
 21
17
  0
LINE
  8
0
 10
-30.005
 20
17
 11
-29.983
 21
17.2089
  0
LINE
  8
0
 10
-29.983
 20
17.2089
 11
-29.9181
 21
17.4088
  0
LINE
  8
0
 10
-29.9181
 20
17.4088
 11
-29.813
 21
17.5907
  0
LINE
  8
0
 10
-29.813
 20
17.5907
 11
-29.6725
 21
17.7469
  0
LINE
  8
0
 10
-29.6725
 20
17.7469
 11
-29.5025
 21
17.8703
  0
LINE
  8
0
 10
-29.5025
 20
17.8703
 11
-29.3105
 21
17.9558
  0
LINE
  8
0
 10
-29.3105
 20
17.9558
 11
-29.105
 21
17.9995
  0
LINE
  8
0
 10
-29.105
 20
17.9995
 11
-28.8949
 21
17.9995
  0
LINE
  8
0
 10
-28.8949
 20
17.9995
 11
-28.6894
 21
17.9558
  0
LINE
  8
0
 10
-28.6894
 20
17.9558
 11
-28.4975
 21
17.8703
  0
LINE
  8
0
 10
-28.4975
 20
17.8703
 11
-28.3275
 21
17.7469
  0
LINE
  8
0
 10
-28.3275
 20
17.7469
 11
-28.1869
 21
17.5907
  0
LINE
  8
0
 10
-28.1869
 20
17.5907
 11
-28.0819
 21
17.4088
  0
LINE
  8
0
 10
-28.0819
 20
17.4088
 11
-28.017
 21
17.2089
  0
LINE
  8
0
 10
-28.017
 20
17.2089
 11
-27.995
 21
17
  0
LINE
  8
0
 10
-27.995
 20
17
 11
-28.017
 21
16.791
  0
LINE
  8
0
 10
-28.017
 20
16.791
 11
-28.0819
 21
16.5912
  0
LINE
  8
0
 10
-28.0819
 20
16.5912
 11
-28.1869
 21
16.4093
  0
LINE
  8
0
 10
-28.1869
 20
16.4093
 11
-28.3275
 21
16.2531
  0
LINE
  8
0
 10
-28.3275
 20
16.2531
 11
-28.4975
 21
16.1296
  0
LINE
  8
0
 10
-28.4975
 20
16.1296
 11
-28.6894
 21
16.0442
  0
LINE
  8
0
 10
-28.6894
 20
16.0442
 11
-28.8949
 21
16.0005
  0
LINE
  8
0
 10
-28.8949
 20
16.0005
 11
-29.105
 21
16.0005
  0
LINE
  8
0
 10
-29.105
 20
-17.9995
 11
-29.3105
 21
-17.9558
  0
LINE
  8
0
 10
-29.3105
 20
-17.9558
 11
-29.5025
 21
-17.8703
  0
LINE
  8
0
 10
-29.5025
 20
-17.8703
 11
-29.6725
 21
-17.7469
  0
LINE
  8
0
 10
-29.6725
 20
-17.7469
 11
-29.813
 21
-17.5907
  0
LINE
  8
0
 10
-29.813
 20
-17.5907
 11
-29.9181
 21
-17.4088
  0
LINE
  8
0
 10
-29.9181
 20
-17.4088
 11
-29.983
 21
-17.2089
  0
LINE
  8
0
 10
-29.983
 20
-17.2089
 11
-30.005
 21
-17
  0
LINE
  8
0
 10
-30.005
 20
-17
 11
-29.983
 21
-16.791
  0
LINE
  8
0
 10
-29.983
 20
-16.791
 11
-29.9181
 21
-16.5912
  0
LINE
  8
0
 10
-29.9181
 20
-16.5912
 11
-29.813
 21
-16.4093
  0
LINE
  8
0
 10
-29.813
 20
-16.4093
 11
-29.6725
 21
-16.2531
  0
LINE
  8
0
 10
-29.6725
 20
-16.2531
 11
-29.5025
 21
-16.1296
  0
LINE
  8
0
 10
-29.5025
 20
-16.1296
 11
-29.3105
 21
-16.0442
  0
LINE
  8
0
 10
-29.3105
 20
-16.0442
 11
-29.105
 21
-16.0005
  0
LINE
  8
0
 10
-29.105
 20
-16.0005
 11
-28.8949
 21
-16.0005
  0
LINE
  8
0
 10
-28.8949
 20
-16.0005
 11
-28.6894
 21
-16.0442
  0
LINE
  8
0
 10
-28.6894
 20
-16.0442
 11
-28.4975
 21
-16.1296
  0
LINE
  8
0
 10
-28.4975
 20
-16.1296
 11
-28.3275
 21
-16.2531
  0
LINE
  8
0
 10
-28.3275
 20
-16.2531
 11
-28.1869
 21
-16.4093
  0
LINE
  8
0
 10
-28.1869
 20
-16.4093
 11
-28.0819
 21
-16.5912
  0
LINE
  8
0
 10
-28.0819
 20
-16.5912
 11
-28.017
 21
-16.791
  0
LINE
  8
0
 10
-28.017
 20
-16.791
 11
-27.995
 21
-17
  0
LINE
  8
0
 10
-27.995
 20
-17
 11
-28.017
 21
-17.2089
  0
LINE
  8
0
 10
-28.017
 20
-17.2089
 11
-28.0819
 21
-17.4088
  0
LINE
  8
0
 10
-28.0819
 20
-17.4088
 11
-28.1869
 21
-17.5907
  0
LINE
  8
0
 10
-28.1869
 20
-17.5907
 11
-28.3275
 21
-17.7469
  0
LINE
  8
0
 10
-28.3275
 20
-17.7469
 11
-28.4975
 21
-17.8703
  0
LINE
  8
0
 10
-28.4975
 20
-17.8703
 11
-28.6894
 21
-17.9558
  0
LINE
  8
0
 10
-28.6894
 20
-17.9558
 11
-28.8949
 21
-17.9995
  0
LINE
  8
0
 10
-28.8949
 20
-17.9995
 11
-29.105
 21
-17.9995
  0
LINE
  8
0
 10
28.8949
 20
-17.9995
 11
28.6894
 21
-17.9558
  0
LINE
  8
0
 10
28.6894
 20
-17.9558
 11
28.4975
 21
-17.8703
  0
LINE
  8
0
 10
28.4975
 20
-17.8703
 11
28.3275
 21
-17.7469
  0
LINE
  8
0
 10
28.3275
 20
-17.7469
 11
28.1869
 21
-17.5907
  0
LINE
  8
0
 10
28.1869
 20
-17.5907
 11
28.0819
 21
-17.4088
  0
LINE
  8
0
 10
28.0819
 20
-17.4088
 11
28.017
 21
-17.2089
  0
LINE
  8
0
 10
28.017
 20
-17.2089
 11
27.995
 21
-17
  0
LINE
  8
0
 10
27.995
 20
-17
 11
28.017
 21
-16.791
  0
LINE
  8
0
 10
28.017
 20
-16.791
 11
28.0819
 21
-16.5912
  0
LINE
  8
0
 10
28.0819
 20
-16.5912
 11
28.1869
 21
-16.4093
  0
LINE
  8
0
 10
28.1869
 20
-16.4093
 11
28.3275
 21
-16.2531
  0
LINE
  8
0
 10
28.3275
 20
-16.2531
 11
28.4975
 21
-16.1296
  0
LINE
  8
0
 10
28.4975
 20
-16.1296
 11
28.6894
 21
-16.0442
  0
LINE
  8
0
 10
28.6894
 20
-16.0442
 11
28.8949
 21
-16.0005
  0
LINE
  8
0
 10
28.8949
 20
-16.0005
 11
29.105
 21
-16.0005
  0
LINE
  8
0
 10
29.105
 20
-16.0005
 11
29.3105
 21
-16.0442
  0
LINE
  8
0
 10
29.3105
 20
-16.0442
 11
29.5025
 21
-16.1296
  0
LINE
  8
0
 10
29.5025
 20
-16.1296
 11
29.6725
 21
-16.2531
  0
LINE
  8
0
 10
29.6725
 20
-16.2531
 11
29.813
 21
-16.4093
  0
LINE
  8
0
 10
29.813
 20
-16.4093
 11
29.9181
 21
-16.5912
  0
LINE
  8
0
 10
29.9181
 20
-16.5912
 11
29.983
 21
-16.791
  0
LINE
  8
0
 10
29.983
 20
-16.791
 11
30.005
 21
-17
  0
LINE
  8
0
 10
30.005
 20
-17
 11
29.983
 21
-17.2089
  0
LINE
  8
0
 10
29.983
 20
-17.2089
 11
29.9181
 21
-17.4088
  0
LINE
  8
0
 10
29.9181
 20
-17.4088
 11
29.813
 21
-17.5907
  0
LINE
  8
0
 10
29.813
 20
-17.5907
 11
29.6725
 21
-17.7469
  0
LINE
  8
0
 10
29.6725
 20
-17.7469
 11
29.5025
 21
-17.8703
  0
LINE
  8
0
 10
29.5025
 20
-17.8703
 11
29.3105
 21
-17.9558
  0
LINE
  8
0
 10
29.3105
 20
-17.9558
 11
29.105
 21
-17.9995
  0
LINE
  8
0
 10
29.105
 20
-17.9995
 11
28.8949
 21
-17.9995
  0
ENDSEC
  0
SECTION
  2
OBJECTS
  0
DICTIONARY
  0
ENDSEC
  0
EOF
